<svg version="1.2" xmlns="http://www.w3.org/2000/svg" viewBox="0 0 3064 3064" width="3064" height="3064">
	<title>mikro-orm-svg</title>
	<style>
		.s0 { fill: #1a1a1a } 
		.s1 { fill: #166788 } 
	</style>
	<path fill-rule="evenodd" class="s0" d="m44.7 1330q0.6-5.6 4.5-9.4 3.9-3.7 9.9-3.7h74.5q10.5 0 13.8 11.3l105.3 293.6q26.5-74 53.2-146.8 6.7-18.3 13.4-36.6 6.7-18.3 13.3-36.7 6.6-18.3 13.2-36.7 6.6-18.4 13.1-36.8 4.2-11.3 13.7-11.3h74.9q5.9 0 9.7 3.9 3.7 3.9 4 9.2 2.7 26.1 5.5 52.2 2.8 26 5.6 52.1 2.8 26.1 5.6 52.1 2.8 26.1 5.7 52.2 11.3 103.8 22.7 208.2v0.9q0 12.2-13.2 12.2h-57.8q-13.5 0-14.1-13.1l-30.4-282.2-99.3 274.4q-1.5 4.2-4.8 7.8-3.3 3.6-6.9 3.6h-53.7q-3.9 0-7.1-3.5-0.8-0.8-1.5-1.7-0.8-0.9-1.4-1.9-0.6-1-1.1-2.1-0.4-1.1-0.8-2.2-6.1-17.1-12.2-34.2-6.1-17.2-12.3-34.3-6.1-17.1-12.3-34.2-6.2-17.1-12.4-34.2-6.3-17.1-12.5-34.3-6.2-17.1-12.5-34.3-6.2-17.2-12.4-34.3-6.2-17.2-12.5-34.3l-30.4 281.9q0 13.1-13.7 13.1h-57.9q-13.1 0-13.1-13.1zm538.2 0q0-5.4 3.2-9.3 3.3-3.8 9.9-3.8h59.1q5.1 0 9.5 3.5 4.5 3.6 4.5 9.6v416.7q0 13.2-14 13.2h-59.1q-13.1 0-13.1-13.2c0 0 0-416.7 0-416.7zm183.1 0q0.1-5.4 3.5-9.3 3.4-3.8 9.7-3.8h60.5q2.1 0 4.7 0.9 0.6 0.2 1.2 0.5 0.6 0.3 1.2 0.6 0.6 0.3 1.1 0.7 0.6 0.4 1.1 0.8 0.5 0.5 1 1 0.5 0.5 0.9 1 0.5 0.5 0.9 1.1 0.4 0.5 0.8 1.1 1.5 2.4 1.5 5.4v177.2l167.3-181.1q6-9.2 13.1-9.2h85.4q8 0 8 3.5 0 2.4-3.6 6.3l-157.5 183.5 183.8 237.7q4.5 6 4.5 8.7 0 3.3-6.3 3.3h-90.7q-7.1 0-13.1-9.3l-140.2-178.7-50.7 52.5v122.3q0 13.2-14.4 13.2h-60.5q-13.2 0-13.2-13.2zm447.2 0.9q0-14 13.2-14h182.5q30.2 0 56.4 11.4 26.3 11.3 45.8 30.7 19.6 19.4 30.7 45.6 11.2 26.3 11.2 55.8 0 20.6-5.6 39.4-5.7 18.8-15.9 34.9-2.5 4-5.3 7.8-2.7 3.9-5.8 7.5-3 3.7-6.3 7.1-3.2 3.5-6.7 6.7-3.5 3.2-7.2 6.2-3.7 3-7.6 5.8-3.9 2.7-8 5.2-4 2.5-8.2 4.7l77.5 153.1q0.6 2.9 2.1 5.9 0.4 0.7 0.7 1.5 0.2 0.8 0.4 1.6 0.2 0.8 0.3 1.6 0.1 0.8 0.1 1.6 0 8.9-10.4 8.9h-69.2q-10.8 0-14.4-11l-72.2-143.2q-4.7 0-10.2 0.1-5.6 0.2-15.3 0.2h-65.7v141.1q0 12.8-13.8 12.8h-59.9q-6 0-9.6-3.1-3.6-3.1-3.6-9.7c0 0 0-416.2 0-416.2zm251.5 130q0-12.8-4.7-24.9-4.8-12-13.5-21.6-8.6-9.5-20.6-15.4-11.9-6-25.9-6.9-10.4-0.3-20.4-0.4-10-0.2-20.8-0.2h-58.7v138.4h89.9q5.2 0 11.2-0.6 14-0.9 25.8-6.5 11.8-5.7 20.1-15.1 8.4-9.3 13-21.4 4.6-12 4.6-25.4z"/>
	<path fill-rule="evenodd" class="s1" d="m2162.1 1330.9q-0.1-14 13.1-14h182.6q30.1 0 56.3 11.3 26.3 11.4 45.8 30.8 19.6 19.4 30.8 45.6 11.2 26.3 11.2 55.8-0.1 20.6-5.7 39.4-5.7 18.8-15.8 34.9-2.6 4-5.3 7.8-2.8 3.9-5.9 7.5-3 3.7-6.3 7.1-3.2 3.5-6.7 6.7-3.5 3.2-7.2 6.2-3.7 3-7.6 5.8-3.9 2.7-7.9 5.2-4.1 2.5-8.3 4.7l77.5 153q0.6 3 2.1 6 0.4 0.7 0.7 1.5 0.3 0.8 0.4 1.5 0.2 0.8 0.3 1.6 0.1 0.9 0.1 1.7 0 8.9-10.4 8.9h-69.2q-10.8 0-14.4-11l-72.1-143.2q-4.8 0-10.3 0.1-5.6 0.2-15.3 0.2h-65.7v141.1q0 12.8-13.8 12.8h-59.9q-6 0-9.6-3.1-3.5-3.1-3.5-9.7zm251.4 129.9q0-12.8-4.7-24.8-4.8-12.1-13.5-21.6-8.6-9.5-20.5-15.5-12-6-26-6.9-10.4-0.2-20.4-0.4-2.6 0-5.2-0.1-2.6 0-5.2 0-2.6 0-5.2 0-2.6 0-5.2 0h-58.7v138.4h89.9q5.2 0 11.2-0.6 14-0.9 25.8-6.6 11.8-5.6 20.1-15 8.4-9.4 13-21.4 4.6-12.1 4.6-25.5zm188.6-130.8q0.6-5.7 4.5-9.4 3.8-3.7 9.8-3.7h74.6q10.4 0 13.7 11.3l105.3 293.6q26.6-74 53.3-146.8 6.7-18.3 13.3-36.7 6.7-18.3 13.3-36.6 6.7-18.4 13.2-36.7 6.6-18.4 13.1-36.8 4.2-11.3 13.7-11.3h74.9q6 0 9.7 3.9 3.7 3.8 4 9.2 2.8 26.1 5.6 52.1 2.7 26.1 5.5 52.2 2.8 26 5.7 52.1 2.8 26.1 5.6 52.1 11.4 103.9 22.7 208.3v0.9q0 12.2-13.1 12.2h-57.9q-13.4 0-14-13.1l-30.5-282.3-99.3 274.5q-1.5 4.2-4.8 7.8-3.3 3.5-6.8 3.5h-53.7q-3.9 0-7.2-3.4-0.8-0.8-1.5-1.8-0.7-0.9-1.3-1.9-0.6-1-1.1-2-0.5-1.1-0.9-2.2-6.1-17.1-12.2-34.3-6.1-17.1-12.2-34.2-6.2-17.1-12.4-34.2-6.2-17.1-12.4-34.2-6.2-17.2-12.5-34.3-6.2-17.2-12.4-34.3-6.3-17.2-12.5-34.4-6.2-17.1-12.4-34.3l-30.4 282q0 13.1-13.8 13.1h-57.8q-13.2 0-13.2-13.1zm-540.1 261.5c10.1 14.2 15.6 29.7 15.6 46 0 68.5-98.6 124.2-219.9 124.2-121.2 0-219.9-55.7-219.9-124.2 0-16.3 5.6-31.8 15.7-46 10.8 11.7 24.5 22.4 41.1 32 43.6 25.2 101.6 39.1 163.1 39.1 61.6 0 119.5-13.9 163.2-39.1 16.5-9.6 30.3-20.3 41.1-32z"/>
	<path class="s1" d="m2066.3 1486.3c-11.4 13.6-26.6 26-45.4 36.9-5.1 2.9-10.3 5.6-15.7 8.2q-0.9 0.5-1.9 0.9-0.9 0.5-1.9 0.9-0.9 0.4-1.9 0.9-0.9 0.4-1.9 0.8-1 0.4-1.9 0.9-1 0.4-2 0.8-1 0.4-2 0.8-1 0.4-2 0.8c-38.5 15.6-84.1 24.1-132 24.1-47.9 0-93.6-8.5-132.1-24.1q-1-0.4-2-0.8-1-0.4-1.9-0.8-1-0.4-2-0.8-1-0.5-2-0.9-0.9-0.4-1.9-0.8-0.9-0.5-1.9-0.9-0.9-0.4-1.9-0.9-0.9-0.4-1.9-0.9c-5.3-2.6-10.6-5.3-15.6-8.2-18.8-10.9-34-23.3-45.4-36.9-7.3 12.4-11.3 25.6-11.3 39.3 0 16.3 5.5 31.8 15.6 46q0.5 0.6 0.9 1.3 0.5 0.7 1 1.3 0.5 0.7 1 1.3 0.5 0.7 1 1.3 0.5 0.6 1 1.2 0.5 0.6 1 1.2 0.5 0.6 1.1 1.2 0.5 0.6 1 1.2c36.3 40.5 110.6 68.3 196.3 68.3 85.6 0 160-27.8 196.3-68.3q0.5-0.6 1-1.2 0.5-0.6 1-1.2 0.5-0.6 1-1.2 0.5-0.6 1-1.2 0.5-0.6 1-1.3 0.5-0.6 1-1.3 0.5-0.6 1-1.3 0.5-0.6 1-1.3c10-14.2 15.6-29.7 15.6-46 0-13.7-4-26.9-11.3-39.3z"/>
	<path fill-rule="evenodd" class="s0" d="m2077.6 1425.3c0 13.7-4 26.9-11.3 39.3q-0.5 0.7-0.9 1.4-0.4 0.7-0.9 1.5-0.5 0.7-0.9 1.4-0.5 0.7-1 1.4-0.4 0.6-0.9 1.3-0.5 0.6-0.9 1.3-0.5 0.6-1 1.3-0.5 0.6-1 1.3c-15.3 19.5-39.2 36.4-69.1 49.1q-1 0.4-2.1 0.9-1.1 0.4-2.1 0.9-1.1 0.4-2.2 0.8-1.1 0.5-2.2 0.9-1.1 0.4-2.2 0.8-1.2 0.5-2.3 0.9-1.1 0.4-2.3 0.8-1.1 0.4-2.3 0.8c-33.3 11.5-72.5 18.2-114.3 18.2-41.9 0-81-6.7-114.4-18.2q-1.1-0.4-2.3-0.8-1.1-0.4-2.2-0.8-1.2-0.4-2.3-0.9-1.2-0.4-2.3-0.8-1.1-0.4-2.2-0.9-1-0.4-2.1-0.8-1.1-0.5-2.2-0.9-1-0.5-2.1-0.9c-29.8-12.7-53.8-29.6-69.1-49.1q-0.5-0.7-0.9-1.3-0.5-0.7-1-1.3-0.5-0.7-0.9-1.3-0.5-0.7-1-1.3-0.5-0.7-0.9-1.4-0.5-0.7-0.9-1.4-0.5-0.8-0.9-1.5-0.5-0.7-0.9-1.4c-7.3-12.4-11.3-25.6-11.3-39.3 0-68.5 98.6-124.3 219.9-124.3 121.2 0 219.9 55.8 219.9 124.3zm-99.1 0c0-37.7-54.2-68.3-120.8-68.3-66.7 0-120.9 30.6-120.9 68.3 0 7.5 2.2 14.8 6.3 21.6q0.2 0.4 0.4 0.8 0.3 0.4 0.5 0.8 0.3 0.4 0.5 0.7 0.3 0.4 0.6 0.8 0.2 0.4 0.5 0.7 0.2 0.4 0.5 0.7 0.2 0.4 0.5 0.8 0.3 0.3 0.5 0.7c8.5 10.7 21.6 20 38 26.9q0.6 0.3 1.2 0.5 0.6 0.3 1.2 0.5 0.5 0.3 1.1 0.5 0.6 0.2 1.2 0.5 0.7 0.2 1.3 0.4 0.6 0.3 1.2 0.5 0.7 0.2 1.3 0.5 0.6 0.2 1.2 0.4c18.4 6.3 39.9 10 62.9 10 23 0 44.5-3.7 62.8-10q0.6-0.2 1.3-0.4 0.6-0.3 1.2-0.5 0.7-0.2 1.3-0.5 0.6-0.2 1.2-0.4 0.6-0.3 1.2-0.5 0.6-0.2 1.2-0.5 0.6-0.2 1.2-0.5 0.6-0.2 1.2-0.5c16.3-6.9 29.5-16.2 37.9-26.9q0.3-0.4 0.5-0.7 0.3-0.4 0.6-0.7 0.2-0.4 0.5-0.8 0.3-0.3 0.5-0.7 0.3-0.4 0.5-0.8 0.3-0.3 0.5-0.7 0.3-0.4 0.5-0.8 0.3-0.4 0.5-0.8c4-6.8 6.2-14.1 6.2-21.6z"/>
</svg>